<mxfile host="65bd71144e">
    <diagram name="Page-1" id="AVgqyzCaT5g_HGF3t2XU">
        <mxGraphModel dx="1414" dy="534" grid="1" gridSize="10" guides="1" tooltips="1" connect="1" arrows="1" fold="1" page="1" pageScale="1" pageWidth="850" pageHeight="1100" math="0" shadow="0">
            <root>
                <mxCell id="0"/>
                <mxCell id="1" parent="0"/>
                <mxCell id="5" style="edgeStyle=orthogonalEdgeStyle;html=1;entryX=0;entryY=0.5;entryDx=0;entryDy=0;rounded=1;curved=0;" parent="1" source="pFe5YTL7qQIc07WUC1TG-1" target="2" edge="1">
                    <mxGeometry relative="1" as="geometry"/>
                </mxCell>
                <mxCell id="6" style="edgeStyle=orthogonalEdgeStyle;html=1;entryX=0;entryY=0.5;entryDx=0;entryDy=0;rounded=1;curved=0;" parent="1" source="pFe5YTL7qQIc07WUC1TG-1" target="3" edge="1">
                    <mxGeometry relative="1" as="geometry"/>
                </mxCell>
                <mxCell id="7" style="edgeStyle=orthogonalEdgeStyle;html=1;entryX=0;entryY=0.5;entryDx=0;entryDy=0;rounded=1;curved=0;" parent="1" source="pFe5YTL7qQIc07WUC1TG-1" target="4" edge="1">
                    <mxGeometry relative="1" as="geometry"/>
                </mxCell>
                <mxCell id="8" style="edgeStyle=orthogonalEdgeStyle;html=1;entryX=0;entryY=0.5;entryDx=0;entryDy=0;rounded=1;curved=0;exitX=1;exitY=0.5;exitDx=0;exitDy=0;" parent="1" source="pFe5YTL7qQIc07WUC1TG-17" target="pFe5YTL7qQIc07WUC1TG-10" edge="1">
                    <mxGeometry relative="1" as="geometry">
                        <mxPoint x="240" y="420.5" as="targetPoint"/>
                        <Array as="points">
                            <mxPoint x="375" y="390"/>
                            <mxPoint x="375" y="357"/>
                        </Array>
                    </mxGeometry>
                </mxCell>
                <mxCell id="14" style="edgeStyle=orthogonalEdgeStyle;html=1;entryX=0;entryY=0.5;entryDx=0;entryDy=0;rounded=1;curved=0;" parent="1" source="pFe5YTL7qQIc07WUC1TG-1" target="13" edge="1">
                    <mxGeometry relative="1" as="geometry"/>
                </mxCell>
                <mxCell id="pFe5YTL7qQIc07WUC1TG-1" value="Build module" style="rounded=1;whiteSpace=wrap;html=1;" parent="1" vertex="1">
                    <mxGeometry x="179" y="262.5" width="120" height="60" as="geometry"/>
                </mxCell>
                <mxCell id="pFe5YTL7qQIc07WUC1TG-6" style="edgeStyle=orthogonalEdgeStyle;rounded=1;orthogonalLoop=1;jettySize=auto;html=1;entryX=0;entryY=0.5;entryDx=0;entryDy=0;curved=0;exitX=1;exitY=0.5;exitDx=0;exitDy=0;" parent="1" source="pFe5YTL7qQIc07WUC1TG-1" target="pFe5YTL7qQIc07WUC1TG-4" edge="1">
                    <mxGeometry relative="1" as="geometry"/>
                </mxCell>
                <mxCell id="pFe5YTL7qQIc07WUC1TG-7" style="edgeStyle=orthogonalEdgeStyle;rounded=1;orthogonalLoop=1;jettySize=auto;html=1;entryX=0;entryY=0.5;entryDx=0;entryDy=0;curved=0;exitX=1;exitY=0.5;exitDx=0;exitDy=0;" parent="1" source="pFe5YTL7qQIc07WUC1TG-1" target="pFe5YTL7qQIc07WUC1TG-3" edge="1">
                    <mxGeometry relative="1" as="geometry"/>
                </mxCell>
                <mxCell id="pFe5YTL7qQIc07WUC1TG-8" style="edgeStyle=orthogonalEdgeStyle;rounded=1;orthogonalLoop=1;jettySize=auto;html=1;entryX=0;entryY=0.5;entryDx=0;entryDy=0;curved=0;exitX=1;exitY=0.5;exitDx=0;exitDy=0;" parent="1" source="pFe5YTL7qQIc07WUC1TG-1" target="pFe5YTL7qQIc07WUC1TG-5" edge="1">
                    <mxGeometry relative="1" as="geometry"/>
                </mxCell>
                <mxCell id="pFe5YTL7qQIc07WUC1TG-11" style="edgeStyle=orthogonalEdgeStyle;rounded=1;orthogonalLoop=1;jettySize=auto;html=1;entryX=0;entryY=0.5;entryDx=0;entryDy=0;curved=0;" parent="1" source="pFe5YTL7qQIc07WUC1TG-3" target="pFe5YTL7qQIc07WUC1TG-10" edge="1">
                    <mxGeometry relative="1" as="geometry"/>
                </mxCell>
                <mxCell id="pFe5YTL7qQIc07WUC1TG-3" value="Run test A" style="rounded=1;whiteSpace=wrap;html=1;" parent="1" vertex="1">
                    <mxGeometry x="400" y="370.5" width="120" height="60" as="geometry"/>
                </mxCell>
                <mxCell id="pFe5YTL7qQIc07WUC1TG-13" style="edgeStyle=orthogonalEdgeStyle;rounded=1;orthogonalLoop=1;jettySize=auto;html=1;entryX=0;entryY=0.5;entryDx=0;entryDy=0;curved=0;" parent="1" source="pFe5YTL7qQIc07WUC1TG-4" target="pFe5YTL7qQIc07WUC1TG-10" edge="1">
                    <mxGeometry relative="1" as="geometry"/>
                </mxCell>
                <mxCell id="pFe5YTL7qQIc07WUC1TG-4" value="Run test B" style="rounded=1;whiteSpace=wrap;html=1;" parent="1" vertex="1">
                    <mxGeometry x="400" y="390.5" width="120" height="60" as="geometry"/>
                </mxCell>
                <mxCell id="pFe5YTL7qQIc07WUC1TG-12" style="edgeStyle=orthogonalEdgeStyle;rounded=1;orthogonalLoop=1;jettySize=auto;html=1;entryX=0;entryY=0.5;entryDx=0;entryDy=0;curved=0;" parent="1" source="pFe5YTL7qQIc07WUC1TG-5" target="pFe5YTL7qQIc07WUC1TG-10" edge="1">
                    <mxGeometry relative="1" as="geometry"/>
                </mxCell>
                <mxCell id="pFe5YTL7qQIc07WUC1TG-5" value="Local&lt;div&gt;tests&lt;/div&gt;" style="rounded=1;whiteSpace=wrap;html=1;" parent="1" vertex="1">
                    <mxGeometry x="400" y="410.5" width="120" height="60" as="geometry"/>
                </mxCell>
                <mxCell id="19" style="edgeStyle=orthogonalEdgeStyle;html=1;entryX=0;entryY=0.5;entryDx=0;entryDy=0;rounded=1;curved=0;" parent="1" source="pFe5YTL7qQIc07WUC1TG-10" target="16" edge="1">
                    <mxGeometry relative="1" as="geometry"/>
                </mxCell>
                <mxCell id="20" style="edgeStyle=orthogonalEdgeStyle;html=1;entryX=0;entryY=0.5;entryDx=0;entryDy=0;rounded=1;curved=0;" parent="1" source="pFe5YTL7qQIc07WUC1TG-10" target="15" edge="1">
                    <mxGeometry relative="1" as="geometry"/>
                </mxCell>
                <mxCell id="21" style="edgeStyle=none;html=1;entryX=0.5;entryY=0;entryDx=0;entryDy=0;" parent="1" source="pFe5YTL7qQIc07WUC1TG-10" target="22" edge="1">
                    <mxGeometry relative="1" as="geometry">
                        <mxPoint x="620" y="420" as="targetPoint"/>
                    </mxGeometry>
                </mxCell>
                <mxCell id="pFe5YTL7qQIc07WUC1TG-10" value="Collect&amp;nbsp;&lt;div&gt;test results&lt;/div&gt;" style="rounded=1;whiteSpace=wrap;html=1;" parent="1" vertex="1">
                    <mxGeometry x="560" y="327" width="120" height="60" as="geometry"/>
                </mxCell>
                <mxCell id="pFe5YTL7qQIc07WUC1TG-14" value="Run test A" style="rounded=1;whiteSpace=wrap;html=1;" parent="1" vertex="1">
                    <mxGeometry x="179" y="340.5" width="120" height="60" as="geometry"/>
                </mxCell>
                <mxCell id="pFe5YTL7qQIc07WUC1TG-17" value="Lint/Test&lt;div&gt;source code&lt;/div&gt;" style="rounded=1;whiteSpace=wrap;html=1;" parent="1" vertex="1">
                    <mxGeometry x="179" y="360" width="120" height="60" as="geometry"/>
                </mxCell>
                <mxCell id="9" style="edgeStyle=orthogonalEdgeStyle;html=1;entryX=0;entryY=0.5;entryDx=0;entryDy=0;exitX=1;exitY=0.5;exitDx=0;exitDy=0;rounded=1;curved=0;" parent="1" source="2" target="pFe5YTL7qQIc07WUC1TG-10" edge="1">
                    <mxGeometry relative="1" as="geometry"/>
                </mxCell>
                <mxCell id="2" value="Run test A" style="rounded=1;whiteSpace=wrap;html=1;" parent="1" vertex="1">
                    <mxGeometry x="400" y="243.5" width="120" height="60" as="geometry"/>
                </mxCell>
                <mxCell id="10" style="edgeStyle=orthogonalEdgeStyle;html=1;exitX=1;exitY=0.5;exitDx=0;exitDy=0;rounded=1;entryX=0;entryY=0.5;entryDx=0;entryDy=0;curved=0;" parent="1" source="3" target="pFe5YTL7qQIc07WUC1TG-10" edge="1">
                    <mxGeometry relative="1" as="geometry">
                        <mxPoint x="620" y="357" as="targetPoint"/>
                    </mxGeometry>
                </mxCell>
                <mxCell id="3" value="Run test B" style="rounded=1;whiteSpace=wrap;html=1;" parent="1" vertex="1">
                    <mxGeometry x="400" y="262.5" width="120" height="60" as="geometry"/>
                </mxCell>
                <mxCell id="11" style="edgeStyle=orthogonalEdgeStyle;html=1;exitX=1;exitY=0.5;exitDx=0;exitDy=0;rounded=1;entryX=0;entryY=0.5;entryDx=0;entryDy=0;curved=0;" parent="1" source="4" target="pFe5YTL7qQIc07WUC1TG-10" edge="1">
                    <mxGeometry relative="1" as="geometry">
                        <mxPoint x="620" y="357" as="targetPoint"/>
                    </mxGeometry>
                </mxCell>
                <mxCell id="4" value="PSModule&lt;div&gt;t&lt;span style=&quot;background-color: transparent;&quot;&gt;ests&lt;/span&gt;&lt;/div&gt;" style="rounded=1;whiteSpace=wrap;html=1;" parent="1" vertex="1">
                    <mxGeometry x="400" y="280.5" width="120" height="60" as="geometry"/>
                </mxCell>
                <mxCell id="17" style="edgeStyle=orthogonalEdgeStyle;html=1;entryX=0;entryY=0.5;entryDx=0;entryDy=0;rounded=1;curved=0;" parent="1" source="13" target="15" edge="1">
                    <mxGeometry relative="1" as="geometry">
                        <Array as="points">
                            <mxPoint x="700" y="170"/>
                            <mxPoint x="700" y="307"/>
                        </Array>
                    </mxGeometry>
                </mxCell>
                <mxCell id="18" style="edgeStyle=orthogonalEdgeStyle;html=1;entryX=0;entryY=0.5;entryDx=0;entryDy=0;rounded=1;curved=0;" parent="1" source="13" target="16" edge="1">
                    <mxGeometry relative="1" as="geometry">
                        <Array as="points">
                            <mxPoint x="700" y="170"/>
                            <mxPoint x="700" y="407"/>
                        </Array>
                    </mxGeometry>
                </mxCell>
                <mxCell id="13" value="Generate&lt;div&gt;documentation&lt;/div&gt;" style="rounded=1;whiteSpace=wrap;html=1;" parent="1" vertex="1">
                    <mxGeometry x="400" y="140" width="120" height="60" as="geometry"/>
                </mxCell>
                <mxCell id="15" value="Publish&lt;div&gt;Documentation&lt;/div&gt;" style="rounded=1;whiteSpace=wrap;html=1;" parent="1" vertex="1">
                    <mxGeometry x="720" y="277" width="120" height="60" as="geometry"/>
                </mxCell>
                <mxCell id="16" value="Publish&lt;div&gt;Module&lt;/div&gt;" style="rounded=1;whiteSpace=wrap;html=1;" parent="1" vertex="1">
                    <mxGeometry x="720" y="377" width="120" height="60" as="geometry"/>
                </mxCell>
                <mxCell id="22" value="CodeCoverage&lt;div&gt;75%&lt;/div&gt;" style="rounded=1;whiteSpace=wrap;html=1;fillColor=#f8cecc;strokeColor=#b85450;" parent="1" vertex="1">
                    <mxGeometry x="560" y="411" width="120" height="60" as="geometry"/>
                </mxCell>
                <mxCell id="23" value="Get settings&lt;div&gt;and test suites&lt;/div&gt;" style="rounded=1;whiteSpace=wrap;html=1;" vertex="1" parent="1">
                    <mxGeometry x="29" y="303.5" width="120" height="60" as="geometry"/>
                </mxCell>
                <mxCell id="25" style="edgeStyle=orthogonalEdgeStyle;html=1;entryX=0;entryY=0.5;entryDx=0;entryDy=0;rounded=1;curved=0;exitX=1;exitY=0.5;exitDx=0;exitDy=0;" edge="1" parent="1" source="23" target="pFe5YTL7qQIc07WUC1TG-1">
                    <mxGeometry relative="1" as="geometry">
                        <mxPoint x="570" y="367" as="targetPoint"/>
                        <mxPoint x="319" y="400" as="sourcePoint"/>
                    </mxGeometry>
                </mxCell>
                <mxCell id="26" style="edgeStyle=orthogonalEdgeStyle;html=1;rounded=1;curved=0;exitX=1;exitY=0.5;exitDx=0;exitDy=0;entryX=0;entryY=0.5;entryDx=0;entryDy=0;" edge="1" parent="1" source="23" target="pFe5YTL7qQIc07WUC1TG-17">
                    <mxGeometry relative="1" as="geometry">
                        <mxPoint x="280" y="490" as="targetPoint"/>
                        <mxPoint x="110" y="470" as="sourcePoint"/>
                    </mxGeometry>
                </mxCell>
            </root>
        </mxGraphModel>
    </diagram>
</mxfile>
